# xmcd
#
# Track frame offsets:
#	150
#	7895
#	20195
#	35068
#	46640
#	57108
#	69128
#	79992
#	92292
#	102277
#	121229
#	133979
#	148171
#	167888
#	178192
#	187830
#	201218
#	212683
#	225896
#	239017
#	249550
#	259969
#	271032
#	285702
#	296247
#
# Disc length: 4164 seconds
#
# Revision: 1
# Processed by: cddbd v1.5.2PL0 Copyright (c) Steve Scherf et al.
# Submitted via: EZCDAudioConverter 8.0.2.1
#
DISCID=6a104219
DTITLE=群星 - 三生三世十里桃花[CD2 配乐]
DYEAR=2017
DGENRE=Film
TTITLE0=玉清崑仑扇
TTITLE1=崑仑虚
TTITLE2=墨渊
TTITLE3=司音
TTITLE4=上仙么么哒
TTITLE5=修行
TTITLE6=离镜
TTITLE7=情窦
TTITLE8=玄女
TTITLE9=决战若水河
TTITLE10=青丘一脉
TTITLE11=路漫漫
TTITLE12=封印擎苍
TTITLE13=东荒俊疾山
TTITLE14=小黑蛇的日常
TTITLE15=素素
TTITLE16=素锦
TTITLE17=夜华
TTITLE18=夜华的爱
TTITLE19=白浅
TTITLE20=凤九
TTITLE21=东华帝君
TTITLE22=缪清之舞
TTITLE23=四海八荒
TTITLE24=神识
EXTD=
EXTT0=
EXTT1=
EXTT2=
EXTT3=
EXTT4=
EXTT5=
EXTT6=
EXTT7=
EXTT8=
EXTT9=
EXTT10=
EXTT11=
EXTT12=
EXTT13=
EXTT14=
EXTT15=
EXTT16=
EXTT17=
EXTT18=
EXTT19=
EXTT20=
EXTT21=
EXTT22=
EXTT23=
EXTT24=
PLAYORDER=
